<svg xmlns="http://www.w3.org/2000/svg" version="1.1" xmlns:xlink="http://www.w3.org/1999/xlink" xmlns:svgjs="http://svgjs.com/svgjs" x="0" y="0" viewBox="0 0 512 512" style="enable-background:new 0 0 512 512" xml:space="preserve" class=""><g><path d="M395.361 136.324a7.981 7.981 0 0 1 2.906-10.906l30.204-17.438a7.982 7.982 0 0 1 8 13.812l-30.204 17.438a7.981 7.981 0 0 1-10.906-2.906zM168.494 430.909l2.807-21.482c1.546-11.822-1.341-22.546-8.605-31.999l-65.514-64.999c-10.307-10.226-27.158-10.159-37.383.148-7.138 7.138-7.025 19.015.116 26.101l34.996 34.721a7.976 7.976 0 0 1 .031 11.281 7.976 7.976 0 0 1-11.281.031L48.665 349.99c-13.373-13.269-13.444-35.294-.179-48.664a34.015 34.015 0 0 1 10.825-7.35l-.001-83.466c0-13.142-10.754-23.896-23.896-23.894-13.144.002-23.896 10.753-23.896 23.894l.002 147.284c0 11.918 4.567 21.886 12.68 30.613l35.629 38.326c8.584 9.233 12.606 18.872 13.406 29.7zM75.528 121.792l30.204 17.438a7.981 7.981 0 0 0 8-13.812L83.528 107.98a7.982 7.982 0 0 0-8 13.812zM336.447 77.41a7.981 7.981 0 0 0 10.906-2.906L364.792 44.3a7.981 7.981 0 0 0-13.812-8l-17.438 30.203a7.98 7.98 0 0 0 2.905 10.907zM256 55.876a8 8 0 0 0 8-8V13a8 8 0 0 0-16 0v34.877a8 8 0 0 0 8 7.999zm220.586 130.74c-13.142-.002-23.896 10.753-23.896 23.894l-.001 83.466a34.004 34.004 0 0 1 10.825 7.35c13.265 13.37 13.194 35.395-.179 48.664l-34.996 34.721a7.977 7.977 0 0 1-11.25-11.312l34.996-34.721c7.141-7.086 7.254-18.963.116-26.101-10.225-10.307-27.076-10.374-37.384-.148l-65.514 64.999c-7.264 9.453-10.151 20.177-8.605 31.999l2.807 21.482 95.259 25.524c.8-10.827 4.822-20.467 13.406-29.7l35.629-38.326c8.113-8.727 12.68-18.694 12.68-30.613l.002-147.284c.001-13.141-10.751-23.892-23.895-23.894zM256 164.662c-29.459 0-53.34 23.881-53.34 53.34 0 25.057 17.279 46.074 40.57 51.797v-40.742h-12.482c-2.761.001-4.451-3.18-2.685-5.465l25.253-32.68a3.39 3.39 0 0 1 5.368 0l25.253 32.68c1.767 2.286.076 5.467-2.685 5.465h-12.481v40.742c23.291-5.723 40.569-26.741 40.569-51.797 0-29.459-23.881-53.34-53.34-53.34zm68.744 168.788c-8.487 5.057-13.314 13.548-13.314 23.427v11.284H200.569v-11.284c0-9.883-4.827-18.37-13.314-23.427-39.368-23.457-65.74-66.455-65.74-115.613 0-74.272 60.21-134.484 134.485-134.484s134.485 60.212 134.485 134.484c0 49.158-26.373 92.156-65.741 115.613zm16.176-54.817-12.193-12.192a86.887 86.887 0 0 0 12.957-31.264h17.236v-34.35h-17.236a86.867 86.867 0 0 0-12.958-31.263l12.193-12.193-24.289-24.289-12.193 12.193a86.89 86.89 0 0 0-31.264-12.958v-17.236h-34.35v17.235a86.879 86.879 0 0 0-31.264 12.958l-12.192-12.193-24.289 24.289 12.192 12.193a86.89 86.89 0 0 0-12.958 31.264h-17.234v34.35h17.234a86.894 86.894 0 0 0 12.958 31.265l-12.192 12.191 24.289 24.29 12.192-12.192a86.897 86.897 0 0 0 31.264 12.958v17.234h34.35v-17.234a86.882 86.882 0 0 0 31.264-12.958l12.192 12.192zM164.646 74.504a7.981 7.981 0 0 0 13.812-8L161.02 36.3a7.981 7.981 0 0 0-13.812 8zm283.338 400.963L333.345 444.75c-2.798-.75-5.697.925-6.446 3.721l-5.677 21.188c-.749 2.796.925 5.696 3.722 6.445l114.639 30.717c2.797.75 5.697-.925 6.446-3.721l5.677-21.188c.75-2.796-.925-5.696-3.722-6.445zm-247.415-89.213c0 10.183 8.304 18.487 18.487 18.487h73.887c10.182 0 18.487-8.304 18.487-18.487v-2.093H200.569zm-15.468 62.216c-.749-2.796-3.649-4.47-6.446-3.721L64.016 475.467c-2.797.75-4.471 3.649-3.722 6.446l5.677 21.188c.75 2.796 3.649 4.47 6.446 3.721l114.639-30.718c2.797-.75 4.471-3.649 3.722-6.445zm61.228-5.747h19.342c13.204 0 24.278-9.483 26.755-21.982h-72.852c2.476 12.503 13.55 21.982 26.755 21.982z" fill="#35879d" data-original="#000000" class=""/></g></svg>