<svg xmlns="http://www.w3.org/2000/svg" version="1.1" xmlns:xlink="http://www.w3.org/1999/xlink" xmlns:svgjs="http://svgjs.com/svgjs" x="0" y="0" viewBox="0 0 512 512" style="enable-background:new 0 0 512 512" xml:space="preserve" class=""><g><path d="M497 332h-86.667c-8.284 0-15 6.716-15 15v45H293.667c-8.284 0-15 6.716-15 15v45H177c-8.284 0-15 6.716-15 15v30c0 8.284 6.716 15 15 15h320c8.284 0 15-6.716 15-15V347c0-8.284-6.716-15-15-15z" fill="#35879d" data-original="#000000"/><circle cx="187.345" cy="54.589" r="45" transform="rotate(-45 187.35 54.628)" fill="#35879d" data-original="#000000"/><path d="M189.999 421.895c16.51-1.375 28.779-15.874 27.404-32.384l-6.593-79.157a59.997 59.997 0 0 0-17.37-37.449l-27.198-27.194 15.066-55.244 42.657 10.957c1.219.313 2.473.472 3.732.472h41.685c16.507 0 30.622-13.5 30.619-30.007a29.85 29.85 0 0 0-5-16.574V89.5h70c11.517 0 18.738-12.442 13.024-22.442L365.276 44.75l12.747-22.308C383.738 12.442 376.517 0 365 0h-85c-8.284 0-15 6.716-15 15v126.895h-30.801l-38.203-12.825a74.583 74.583 0 0 1-28.063-2.035 74.528 74.528 0 0 1-32.429-18.274L97.667 96.058a60.008 60.008 0 0 0-21.962-4.164H30.624C14.278 91.894.46 104.71.012 121.05-.453 138.005 13.151 151.895 30 151.895h42.92l31.666 15.837-41.373 157.61-39.961 34.257c-12.79 10.965-14.079 30.362-2.694 42.929 10.973 12.113 29.802 12.851 42.212 2.215l39.49-33.845a59.996 59.996 0 0 0 19.165-31.01l10.825-43.314 18.765 18.769 6.6 79.152c1.377 16.508 15.875 28.775 32.384 27.4z" fill="#35879d" data-original="#000000"/></g></svg>