<svg xmlns="http://www.w3.org/2000/svg" version="1.1" xmlns:xlink="http://www.w3.org/1999/xlink" xmlns:svgjs="http://svgjs.com/svgjs" x="0" y="0" viewBox="0 0 512 512" style="enable-background:new 0 0 512 512" xml:space="preserve" class=""><g><path d="M207.796 473.422h248.743c10.331 0 18.735-8.404 18.735-18.734s-8.404-18.734-18.735-18.734h-200.72c-12.292-.177-24.54-4.916-33.898-14.274l-102.65-102.65 21.213-21.213 102.65 102.65c7.304 7.303 19.19 7.303 26.495 0 7.305-7.305 7.305-19.19 0-26.495L143.402 247.745c-9.882-9.881-23.072-15.322-37.139-15.322H0v173.531c35.662 0 70.307 7.254 102.97 21.56zM352.608 225.953l60.883-32.008 60.882 32.009-11.628-67.794L512 110.148l-68.068-9.891-30.441-61.679-30.442 61.679-68.067 9.891 49.254 48.012z" fill="#35879d" data-original="#000000"/><path d="M375 375.954h137v30H375zM375 315.954h137v30H375zM375 255.954h137v30H375zM315 375.954h30v30h-30zM315 315.954h30v30h-30zM315 255.954h30v30h-30z" fill="#35879d" data-original="#000000"/></g></svg>