<svg xmlns="http://www.w3.org/2000/svg" version="1.1" xmlns:xlink="http://www.w3.org/1999/xlink" xmlns:svgjs="http://svgjs.com/svgjs" x="0" y="0" viewBox="0 0 512 512" style="enable-background:new 0 0 512 512" xml:space="preserve" class=""><g><path fill-rule="evenodd" d="m256.696 44.438 12.123 31.929a2.479 2.479 0 0 0 2.238 1.626l34.112 1.663c2.32.113 3.27 3.036 1.459 4.491l-26.62 21.396a2.48 2.48 0 0 0-.855 2.631l8.96 32.956c.609 2.241-1.876 4.048-3.82 2.775L255.718 125.2a2.48 2.48 0 0 0-2.766 0l-28.575 18.706c-1.943 1.272-4.429-.534-3.82-2.775l8.96-32.957a2.478 2.478 0 0 0-.855-2.631l-26.62-21.396c-1.811-1.455-.861-4.378 1.459-4.491l34.112-1.663a2.478 2.478 0 0 0 2.238-1.626l12.122-31.929c.821-2.159 3.904-2.159 4.723 0zm158.295 262.726c44.74 0 81.009 36.269 81.009 81.009s-36.269 81.009-81.009 81.009-81.008-36.269-81.008-81.009c0-44.741 36.268-81.009 81.008-81.009zm-10.64 88.154-18.101-18.101c-4.691-4.691-12.301-4.691-16.993 0-4.691 4.691-4.691 12.301 0 16.992l26.623 26.623c4.691 4.691 12.301 4.691 16.992 0 16.047-16.047 31.912-32.275 47.885-48.396 4.658-4.7 4.643-12.286-.052-16.955-4.696-4.67-12.302-4.656-16.965.053zM254.336 173.059c33.226 0 60.161 26.935 60.161 60.161s-26.935 60.161-60.161 60.161-60.161-26.935-60.161-60.161 26.935-60.161 60.161-60.161zM147.741 409.567l172.614-.001a97.353 97.353 0 0 1-2.372-21.394c0-19.94 6.02-38.473 16.336-53.887-21.128-19.199-49.186-30.904-79.983-30.904-57.18 0-104.936 40.335-116.377 94.104a9.966 9.966 0 0 0 9.782 12.082zm344.358-226.492-21.59 26.463a2.478 2.478 0 0 0-.289 2.751l15.616 30.374c1.062 2.066-.994 4.349-3.159 3.509l-31.84-12.356a2.48 2.48 0 0 0-2.706.575l-24.061 24.238c-1.636 1.648-4.443.399-4.313-1.921l1.912-34.099a2.48 2.48 0 0 0-1.383-2.396l-30.487-15.393c-2.073-1.047-1.752-4.103.493-4.696l33.021-8.719a2.48 2.48 0 0 0 1.851-2.056l5.219-33.751c.355-2.296 3.361-2.935 4.619-.982l18.496 28.711a2.478 2.478 0 0 0 2.527 1.125l33.712-5.466c2.281-.37 3.822 2.3 2.362 4.089zM392.972 82.218c.37-2.279-2.3-3.821-4.09-2.361l-26.463 21.59a2.478 2.478 0 0 1-2.751.289L329.294 86.12c-2.065-1.062-4.349.994-3.509 3.16l12.356 31.839a2.481 2.481 0 0 1-.575 2.706l-24.238 24.062c-1.649 1.636-.399 4.443 1.92 4.313l34.099-1.912a2.48 2.48 0 0 1 2.396 1.383l15.394 30.487c1.047 2.074 4.103 1.752 4.696-.493l8.719-33.021a2.48 2.48 0 0 1 2.056-1.851l33.751-5.219c2.296-.355 2.935-3.361.982-4.619l-28.71-18.496a2.48 2.48 0 0 1-1.125-2.527zm-374.04 96.767 33.713 5.466a2.48 2.48 0 0 0 2.527-1.125l18.496-28.71c1.258-1.953 4.264-1.314 4.619.982l5.219 33.752a2.48 2.48 0 0 0 1.851 2.056l33.021 8.719c2.246.593 2.567 3.649.494 4.696l-30.487 15.394a2.481 2.481 0 0 0-1.383 2.396l1.912 34.099c.13 2.319-2.677 3.569-4.313 1.921L60.538 234.39a2.481 2.481 0 0 0-2.706-.575l-31.839 12.356c-2.165.84-4.222-1.443-3.159-3.509l15.616-30.374c.47-.913.36-1.956-.289-2.751l-21.59-26.463c-1.46-1.789.082-4.459 2.361-4.089zm100.856-99.128c-1.789-1.46-4.459.082-4.089 2.361l5.466 33.712a2.48 2.48 0 0 1-1.125 2.527l-28.711 18.496c-1.953 1.258-1.314 4.264.982 4.619l33.752 5.219a2.48 2.48 0 0 1 2.056 1.851l8.719 33.021c.593 2.246 3.649 2.567 4.696.493l15.393-30.487a2.481 2.481 0 0 1 2.396-1.383l34.099 1.912c2.319.13 3.569-2.677 1.92-4.314l-24.238-24.061a2.48 2.48 0 0 1-.575-2.706l12.356-31.84c.84-2.165-1.443-4.222-3.509-3.159l-30.373 15.616a2.48 2.48 0 0 1-2.751-.289z" clip-rule="evenodd" fill="#35879d" data-original="#000000" opacity="1" class=""/></g></svg>